HIERARCHY
ROOT Hips
{
  OFFSET 90.7885 88.945 -76.2838
  CHANNELS 6 Xposition Yposition Zposition Zrotation Xrotation Yrotation
  JOINT LeftUpLeg
  {
    OFFSET 8.64259 1.95398 -2.38835
    CHANNELS 3 Zrotation Xrotation Yrotation
    JOINT LeftLeg
    {
      OFFSET 43.7702 0 0
      CHANNELS 3 Zrotation Xrotation Yrotation
      JOINT LeftFoot
      {
        OFFSET 40.6238 0 0
        CHANNELS 3 Zrotation Xrotation Yrotation
        JOINT LeftToeBase
        {
          OFFSET 12.7242 0 0
          CHANNELS 3 Zrotation Xrotation Yrotation
          End Site
          {
            OFFSET 0 0 0
          }
        }
      }
    }
  }
  JOINT RightUpLeg
  {
    OFFSET -8.2249 1.95398 -2.59336
    CHANNELS 3 Zrotation Xrotation Yrotation
    JOINT RightLeg
    {
      OFFSET 43.5653 0 0
      CHANNELS 3 Zrotation Xrotation Yrotation
      JOINT RightFoot
      {
        OFFSET 40.6238 0 0
        CHANNELS 3 Zrotation Xrotation Yrotation
        JOINT RightToeBase
        {
          OFFSET 12.7242 0 0
          CHANNELS 3 Zrotation Xrotation Yrotation
          End Site
          {
            OFFSET 0 0 0
          }
        }
      }
    }
  }
  JOINT Spine
  {
    OFFSET 0.165834 0.87714 6.61349
    CHANNELS 3 Zrotation Xrotation Yrotation
    JOINT Spine1
    {
      OFFSET 7.38963 1.71661e-005 0
      CHANNELS 3 Zrotation Xrotation Yrotation
      JOINT Spine2
      {
        OFFSET 11.9445 1.14441e-005 0
        CHANNELS 3 Zrotation Xrotation Yrotation
        JOINT Spine3
        {
          OFFSET 14.7254 4.19617e-005 0
          CHANNELS 3 Zrotation Xrotation Yrotation
          JOINT Spine4
          {
            OFFSET 10.9679 0 0
            CHANNELS 3 Zrotation Xrotation Yrotation
            JOINT RightShoulder
            {
              OFFSET 2.46616 -1.6653 3.69651
              CHANNELS 3 Zrotation Xrotation Yrotation
              JOINT RightArm
              {
                OFFSET 13.0012 0 0
                CHANNELS 3 Zrotation Xrotation Yrotation
                JOINT RightForeArm
                {
                  OFFSET 28.7848 1.52588e-005 0
                  CHANNELS 3 Zrotation Xrotation Yrotation
                  JOINT RightHand
                  {
                    OFFSET 26.5688 1.52588e-005 0
                    CHANNELS 3 Zrotation Xrotation Yrotation
                    End Site
                    {
                      OFFSET 0 0 0
                    }
                  }
                }
              }
            }
            JOINT LeftShoulder
            {
              OFFSET 2.38034 -1.29275 -3.7523
              CHANNELS 3 Zrotation Xrotation Yrotation
              JOINT LeftArm
              {
                OFFSET 16.3182 6.10352e-005 0
                CHANNELS 3 Zrotation Xrotation Yrotation
                JOINT LeftForeArm
                {
                  OFFSET 27.0901 0 0
                  CHANNELS 3 Zrotation Xrotation Yrotation
                  JOINT LeftHand
                  {
                    OFFSET 24.5451 1.52588e-005 0
                    CHANNELS 3 Zrotation Xrotation Yrotation
                    End Site
                    {
                      OFFSET 0 0 0
                    }
                  }
                }
              }
            }
            JOINT Neck
            {
              OFFSET 5.0226 -0.0266342 0
              CHANNELS 3 Zrotation Xrotation Yrotation
              JOINT Head
              {
                OFFSET 6.69363 2.86102e-005 0
                CHANNELS 3 Zrotation Xrotation Yrotation
                End Site
                {
                  OFFSET 0 0 0
                }
              }
            }
          }
        }
      }
    }
  }
}
MOTION
Frames:	12
Frame Time:	0.0416667
226.06 101.923 -228.475 -98.8654 -50.4373 -97.6467 -178.556 -1.48854 89.0711 -12.2249 4.76029 0.976714 71.095 4.13695 -4.57987 12.6627 -1.27607 3.83154 168.996 -5.69246 86.658 -8.2256 -9.35755 -0.0651875 68.2837 -4.60785 -0.663309 21.2757 -1.24148 4.01747 0.497154 7.5831 -90.0371 11.7088 0.971483 -0.175789 0.0381945 0.96282 -0.218388 -22.4999 0.979393 0.124341 -2.48721 0.979409 0.124329 88.8958 -31.2047 -108.45 40.9648 -12.2852 -7.46714 6.43168 -22.9928 -12.7086 -23.4187 -0.774296 -6.84917 -89.0736 -53.3283 80.7565 -22.9755 19.4048 -17.9544 1.54636 -7.593 -4.2009 -4.52071 0.0544757 -12.0929 7.49205 3.90248 -1.72917 -10.6064 4.12651 0.892403 
226.075 101.933 -228.535 -98.5172 -50.3847 -97.2264 -178.385 -1.20123 89.3449 -12.3013 5.23625 0.865803 70.9907 4.1192 -4.62497 12.8149 -1.26837 3.80941 169.168 -5.37701 86.8796 -8.43439 -8.82341 -0.0441109 68.1881 -4.49388 0.0130242 21.2856 -0.961437 3.45797 0.475015 7.51245 -90.0536 11.8501 0.919444 -0.205063 0.179484 0.909526 -0.245342 -22.3583 0.938561 0.0807759 -2.34563 0.938569 0.080768 88.6903 -31.1767 -108.859 41.1851 -12.2091 -6.9622 4.73747 -21.1082 -13.7753 -23.8189 -0.939891 -5.34186 -88.9303 -53.3011 80.9584 -23.1456 19.6119 -17.2398 1.42509 -8.36419 -4.53741 -3.80288 -0.00509554 -10.548 5.95117 4.44229 -1.80392 -8.52671 4.69637 0.401849 
225.979 101.876 -228.547 -98.8159 -50.4126 -97.3963 -178.279 -1.52572 89.3604 -12.2415 9.43786 1.03645 70.5682 4.44996 -0.582926 14.4083 -2.43775 4.97841 169.232 -6.17263 87.0339 -7.40297 -9.10149 -0.0706332 68.279 -4.7588 -0.761198 20.6389 -1.13231 3.88355 0.470997 7.52705 -90.0482 11.8209 0.914033 -0.193367 0.150275 0.904622 -0.233414 -22.3875 0.929876 0.0902971 -2.37482 0.929879 0.0902996 88.8638 -31.6426 -108.338 41.0698 -12.3311 -7.09795 5.56232 -22.0709 -13.0922 -23.8223 -0.824278 -6.27232 -88.8755 -53.3312 81.043 -23.007 19.511 -17.3139 1.51303 -7.82436 -4.38435 -3.0773 -0.0560133 -9.29679 6.03619 4.24207 -2.07625 -8.6866 4.54677 0.489851 
226.026 101.902 -228.584 -98.7775 -50.3098 -97.6127 -178.503 -1.66948 89.0452 -11.8985 8.64328 1.12701 70.462 4.39001 -1.07196 13.9979 -2.22285 4.76916 169.016 -5.57518 86.6973 -8.30641 -9.30385 -0.0139958 68.3838 -4.65461 -0.604725 21.1057 -1.15222 3.86259 0.472706 7.53716 -90.0391 11.8006 0.921904 -0.175776 0.129959 0.913265 -0.216194 -22.4078 0.932096 0.109438 -2.39517 0.932104 0.109442 89.0455 -31.5674 -108.018 40.9965 -12.4272 -7.17238 5.02197 -22.5267 -13.6199 -22.651 -0.878754 -6.08778 -88.9289 -53.6331 81.0216 -22.9143 19.888 -17.298 1.33411 -8.06611 -4.90788 -5.85899 0.0870252 -10.2074 6.49991 4.34639 -1.72706 -8.98991 4.5951 0.341478 
225.889 101.892 -228.639 -99.0094 -50.2681 -97.6131 -178.064 -1.77749 89.4628 -11.9822 9.79715 0.775007 70.4212 4.4926 0.14276 14.666 -2.0135 4.46975 169.21 -6.14794 87.0013 -7.6548 -9.49769 -0.0849605 68.2539 -4.71963 -1.1207 20.8692 -1.37306 4.328 0.476816 7.54744 -90.0517 11.7802 0.924035 -0.200961 0.109511 0.91429 -0.241435 -22.4283 0.941701 0.0860686 -2.41562 0.941691 0.0860584 89.2012 -31.2495 -107.841 41.4839 -12.4208 -7.13632 5.84962 -22.3309 -13.1559 -24.9574 -0.976255 -5.51564 -88.8003 -53.4507 81.1734 -23.1897 19.6433 -17.3413 1.44062 -8.08663 -4.65355 -4.55723 0.0227125 -10.3029 6.54677 4.24174 -1.91521 -9.33454 4.51595 0.552708 
225.899 101.901 -228.703 -99.0865 -50.3045 -97.7653 -178.134 -1.82622 89.4612 -11.7604 9.17021 0.824863 69.9002 4.16974 -1.61737 16.1511 -2.60871 5.03242 169.099 -6.09668 86.8855 -7.76129 -9.15458 -0.0183682 68.3286 -4.74815 -0.681462 20.9188 -1.20018 3.9802 0.472242 7.55978 -90.0673 11.7555 0.907683 -0.229926 0.0848849 0.896685 -0.269656 -22.4528 0.934825 0.0535256 -2.44017 0.93482 0.0535227 89.4592 -30.9611 -107.452 41.619 -12.363 -7.26762 6.0919 -22.6256 -13.0184 -24.8347 -0.947013 -5.75747 -88.9554 -54.0283 81.0559 -22.614 19.7213 -17.4079 1.36916 -8.28154 -4.78053 -3.54339 -0.0328472 -9.92634 6.63635 4.30483 -1.43478 -9.19801 4.50187 0.279369 
225.916 101.912 -228.766 -98.9383 -50.172 -97.824 -178.198 -1.79564 89.2415 -11.6571 9.33041 0.776016 69.8967 4.26214 -0.664833 15.5987 -2.20899 4.61803 168.91 -5.73505 86.6443 -8.08231 -9.75597 0.0456385 68.2678 -4.67417 -0.890226 21.2806 -1.25436 4.04126 0.493207 7.56199 -90.0525 11.7511 0.95628 -0.205495 0.0805178 0.946298 -0.247396 -22.4575 0.973836 0.0914336 -2.44482 0.973828 0.0914316 89.4577 -30.9626 -107.454 41.5906 -12.4591 -7.30245 5.29959 -22.4934 -13.6177 -24.1396 -0.953145 -5.67653 -88.9145 -53.7959 81.0722 -23.0622 19.1112 -17.4968 1.79164 -7.11781 -4.46868 -2.46917 -0.0882862 -8.67549 6.73057 4.33331 -1.41869 -8.97324 4.53018 0.236306 
225.831 101.889 -228.878 -98.7246 -50.0839 -97.724 -178.182 -1.66169 89.275 -11.6505 9.24771 0.735955 70.0556 4.30843 -0.788709 15.1045 -2.34223 4.81083 169.121 -5.37621 86.7739 -8.53215 -9.47215 -0.101328 68.6212 -4.7565 -0.567969 20.8271 -1.23705 4.06461 0.488403 7.53986 -90.0299 11.7952 0.957384 -0.161071 0.124591 0.949371 -0.203062 -22.4134 0.961532 0.134135 -2.40074 0.961535 0.134134 89.0643 -31.5044 -108.006 41.277 -11.9661 -7.0033 4.97912 -21.7848 -13.9168 -22.8413 -0.829179 -6.17466 -88.7988 -53.8799 81.2534 -23.1264 18.4448 -17.2005 2.15233 -6.23093 -4.42026 -0.760072 -0.130447 -6.85388 6.5838 4.52741 -1.36087 -8.7686 4.70197 0.348059 
225.73 101.915 -228.929 -99.2014 -50.1608 -97.9469 -178.209 -1.93138 89.4163 -11.9197 8.8889 0.981645 70.6836 4.55537 -0.878043 13.4373 -2.05928 4.63119 169.16 -5.84552 86.9678 -8.48989 -9.38615 -0.0564755 68.8789 -4.93306 -0.739669 20.3012 -0.801899 3.28213 0.48775 7.59785 -90.0613 11.6794 0.941498 -0.220561 0.0087903 0.930843 -0.261783 -22.5291 0.964256 0.0726292 -2.51646 0.964224 0.0726125 89.14 -31.2741 -107.95 41.4766 -11.8584 -7.10789 4.80284 -21.9347 -13.8139 -23.1946 -0.833213 -6.19474 -88.721 -53.7854 81.3482 -23.4468 19.0095 -17.6017 1.88174 -6.62158 -4.52535 -5.29854 0.0416971 -9.54379 6.93542 4.42091 -1.26127 -8.98982 4.58521 0.252051 
225.593 101.923 -228.994 -99.3134 -50.1137 -98.0375 -177.937 -2.13471 89.6805 -11.6311 9.36668 0.726574 70.3869 4.48507 -0.954596 14.3824 -2.31738 4.84214 169.195 -5.85833 87.0282 -8.61641 -9.30817 -0.0381879 68.9605 -5.02249 -0.691023 20.2309 -1.00298 3.68276 0.494448 7.59421 -90.0604 11.6845 0.955145 -0.220266 0.0138702 0.944529 -0.2621 -22.5241 0.977195 0.0770092 -2.51145 0.977199 0.0770063 89.1556 -31.2516 -107.929 41.5391 -12.212 -7.11909 4.96068 -20.3178 -13.591 -23.3994 -0.540893 -7.38315 -88.8715 -54.143 81.1967 -22.4532 19.3709 -17.6938 1.54383 -7.49328 -4.28631 -3.85716 -0.0283044 -9.20997 6.42468 4.33783 -1.41564 -8.69029 4.51971 0.442262 
225.399 101.891 -229.045 -99.3215 -50.5185 -98.1333 -177.525 -1.98784 90.042 -11.752 10.2104 0.293103 70.5147 4.56084 -0.941548 14.0996 -2.43532 5.001 169.046 -6.15775 87.0346 -8.16736 -9.15625 0.164199 69.0243 -5.23389 -0.975069 20.0682 -1.08671 3.86739 0.442677 7.58948 -90.0763 11.6894 0.84473 -0.240622 0.0186602 0.833312 -0.277572 -22.5187 0.877983 0.0244015 -2.50606 0.877987 0.024396 89.2725 -31.1591 -107.738 41.5142 -11.9178 -7.31237 5.04205 -22.4013 -13.4447 -23.1105 -0.922803 -5.81582 -88.9581 -54.7737 81.1873 -21.6008 19.6064 -17.908 1.29051 -8.27168 -4.15682 -3.79032 -0.0263106 -9.55117 6.27842 4.36843 -0.952712 -8.52056 4.46363 0.375723 
225.119 101.846 -229.125 -99.5481 -50.4314 -98.1548 -177.254 -1.92039 90.4711 -12.3691 10.2717 0.212508 70.7916 4.61512 -1.25647 14.6174 -2.21308 4.70192 169.206 -6.38378 87.3718 -8.29122 -9.3784 0.192465 69.0466 -5.46892 -1.69064 20.6285 -1.16939 3.95656 0.495002 7.59392 -90.0902 11.6877 0.942231 -0.278439 0.01708 0.929058 -0.319649 -22.5208 0.982337 0.0176373 -2.50817 0.982361 0.0176341 89.6485 -31.4253 -106.907 41.5242 -12.2205 -7.30369 4.83587 -22.2378 -13.5439 -22.9889 -0.943556 -5.62996 -89.3241 -54.357 80.589 -21.7832 19.6617 -17.9115 1.17236 -9.02387 -3.92695 -4.72759 0.0513555 -11.2692 6.05337 4.10004 -1.47063 -8.32082 4.25598 1.12882 
